<svg xmlns="http://www.w3.org/2000/svg" width="37.335" height="37.335" viewBox="0 0 37.335 37.335">
  <path id="health" d="M38.668,27.334a.667.667,0,0,0,.667-.667v-12A.667.667,0,0,0,38.668,14H28a.666.666,0,0,1-.667-.667V2.667A.667.667,0,0,0,26.667,2h-12A.667.667,0,0,0,14,2.667V13.334a.666.666,0,0,1-.667.667H2.667A.667.667,0,0,0,2,14.667v12a.667.667,0,0,0,.667.667H13.334A.666.666,0,0,1,14,28V38.668a.667.667,0,0,0,.667.667h12a.667.667,0,0,0,.667-.667V28A.666.666,0,0,1,28,27.334ZM26,22a.667.667,0,0,1-.6-.369l-1.261-2.521L21.3,28.2a.666.666,0,0,1-.636.468h-.019a.666.666,0,0,1-.627-.505l-2.745-10.98-1.3,4.343a.667.667,0,0,1-.639.475H10.667a.667.667,0,1,1,0-1.333h4.171L16.7,14.476A.687.687,0,0,1,17.349,14a.665.665,0,0,1,.631.505l2.759,11.032,2.625-8.4a.667.667,0,0,1,1.233-.1l1.816,3.631h4.255a.667.667,0,1,1,0,1.333Z" transform="translate(-2 -2)" fill="#f7d64a"/>
</svg>
