<svg xmlns="http://www.w3.org/2000/svg" width="421.085" height="406.612" viewBox="0 0 421.085 406.612">
  <g id="Group_10096" data-name="Group 10096" transform="translate(10927 -3258)" opacity="0.2">
    <g id="Group_10093" data-name="Group 10093" transform="translate(-10927 3258)">
      <path id="Path_76" data-name="Path 76" d="M320.008,92.69C230.79,52.14,188.12,91.972,188.12,91.972l.036.072c-118.132,87.566-48.345,334.21-48.345,334.21l60.305-1.58C129.862,234.42,198.9,154.756,219.225,136.438c19.5-13.648,45.435-6.393,45.435-6.393,84.621,29.991,105.094,78.623,105.094,78.623l63.825-2.478c0,.036-24.352-72.948-113.57-113.5" transform="translate(-119.341 -74.48)" fill="#d1af2b"/>
    </g>
    <g id="Group_10094" data-name="Group 10094" transform="translate(-10724.111 3318.516)">
      <path id="Path_86" data-name="Path 86" d="M237.392,91.477s-30.673,21.874-36.708,43.388c0,0-21.874-18.533-24.855-19.036,0,0,39.581-26.722,61.562-24.352" transform="translate(-175.83 -91.329)" fill="#75a54c"/>
    </g>
    <g id="Group_10095" data-name="Group 10095" transform="translate(-10839.842 3259.581)">
      <path id="Path_87" data-name="Path 87" d="M408.688,92.484l.036-.072s-42.67-39.832-131.888.718C191.388,131.957,165.456,200.595,163.409,206.27c-10.236,22.879-73.523,181.813,98.162,272.468a10.505,10.505,0,0,0,9.59.108c16.522-8.333,70.254-39.509,92.954-101.323L307.8,376.194s-17.168,26.471-33.726,41.161a10.4,10.4,0,0,1-13.038.718c-23.2-16.881-96.474-83-33.906-208.931,0,0,25.932-57.5,105.094-78.623,0,0,24.783-7.758,43.532,4.741,17.312,14.618,93.672,93.1,21.012,289.888l60.305,1.58s69.787-246.68-48.381-334.246" transform="translate(-143.607 -74.92)" fill="#f7d64a"/>
    </g>
  </g>
</svg>
