<svg xmlns="http://www.w3.org/2000/svg" width="60.022" height="58.729" viewBox="0 0 60.022 58.729">
  <g id="tablet" transform="translate(0 -5.239)">
    <g id="Group_39" data-name="Group 39" transform="translate(0 5.239)">
      <g id="Group_37" data-name="Group 37">
        <g id="Group_36" data-name="Group 36">
          <path id="Path_215" data-name="Path 215" d="M32.878,59.928c-.358-.259-.851-.555-1.345-.839-.419-.247-.851-.493-1.246-.765A27.873,27.873,0,0,0,27.314,56.6H4.4c-.062,0-.111-.012-.16-.012V11.63h.012c.049,0,.1-.012.148-.012H35.888a.625.625,0,0,1,.16.025V32.763c.407.543.814,1.061,1.221,1.567.493.629,1,1.246,1.48,1.888.444-.123.962-.234,1.53-.358V10.643h0V9.976a4.734,4.734,0,0,0-2.8-4.355,4.5,4.5,0,0,0-1.789-.37H20.146L4.589,5.239a4.594,4.594,0,0,0-1.789.37A4.734,4.734,0,0,0,0,9.964V59.225A4.648,4.648,0,0,0,4.577,63.95H35.913a4.344,4.344,0,0,0,3.368-1.591c-1.036-.333-1.739-.481-1.752-.493A11.2,11.2,0,0,1,32.878,59.928Zm-9.462.925a1.178,1.178,0,0,1-1.049.642H17.938a1.238,1.238,0,0,1-1-1.888.768.768,0,0,1,.173-.222,1.165,1.165,0,0,1,.839-.358h4.417a1.178,1.178,0,0,1,1.049.642,1.314,1.314,0,0,1,.148.592A1.5,1.5,0,0,1,23.415,60.854Z" transform="translate(0 -5.239)" fill="#243771"/>
        </g>
      </g>
      <g id="Group_38" data-name="Group 38" transform="translate(24.308 24.029)">
        <path id="Path_216" data-name="Path 216" d="M232.5,225.31l-.888-1.591a23.518,23.518,0,0,1-1.024-2.739,35.644,35.644,0,0,0-3.886-10.708,1.453,1.453,0,0,0-1.024-.827,28.513,28.513,0,0,0-15.224.827l-1.209-1.53c-.95-1.271-1.974-2.48-2.936-3.763-1.086-1.406-2.1-2.739-3.183-4.084a2.223,2.223,0,0,0-3-.506,2.129,2.129,0,0,0-.568,2.936c2.8,4.972,5.613,9.882,8.278,14.841a5.616,5.616,0,0,1,.568,1.789c.123,1.271-.062,2.356-1.271,1.912-1.406-.506-4.466-2.036-5.157-2.1a5.559,5.559,0,0,0-3.5.321,2.986,2.986,0,0,0-1.271,1.406c-.382,1.024-.123,1.653.888,1.974a28.344,28.344,0,0,1,6.5,3.245c.765.506,1.912,1.086,2.677,1.653a8.772,8.772,0,0,0,3.565,1.468,25.242,25.242,0,0,1,9.117,4.145,3.648,3.648,0,0,0,4.466-.062l7.711-6.3A1.861,1.861,0,0,0,232.5,225.31Z" transform="translate(-197.037 -200.016)" fill="#243771"/>
      </g>
      <path id="Icon_awesome-rupee-sign" data-name="Icon awesome-rupee-sign" d="M12.66,4.881a.493.493,0,0,0,.493-.493V2.743a.493.493,0,0,0-.493-.493H.493A.493.493,0,0,0,0,2.743V4.583a.493.493,0,0,0,.493.493H4A2.965,2.965,0,0,1,6.5,6.2H.493A.493.493,0,0,0,0,6.689V8.333a.493.493,0,0,0,.493.493H7.019a2.841,2.841,0,0,1-3.073,2.41H.493A.493.493,0,0,0,0,11.73v2.179a.493.493,0,0,0,.159.362l6.784,6.262a.493.493,0,0,0,.335.131h3.394a.493.493,0,0,0,.335-.856L4.8,14.084a5.631,5.631,0,0,0,5.685-5.257H12.66a.493.493,0,0,0,.493-.493V6.689A.493.493,0,0,0,12.66,6.2H10.248a5.63,5.63,0,0,0-.586-1.315Z" transform="translate(13.563 15.023)" fill="#243771"/>
    </g>
  </g>
</svg>
