<svg xmlns="http://www.w3.org/2000/svg" width="58.728" height="58.729" viewBox="0 0 58.728 58.729">
  <g id="tick" transform="translate(-1.003 -1.001)">
    <path id="Path_205" data-name="Path 205" d="M46.558,28.463,44,26.52l1.246-2.957a2.2,2.2,0,0,0-1.752-3.038L40.3,20.131l-.395-3.19a2.191,2.191,0,0,0-3.028-1.752l-2.967,1.246-1.943-2.562a2.194,2.194,0,0,0-3.5,0L26.52,16.435l-2.957-1.246a2.2,2.2,0,0,0-3.038,1.752l-.395,3.19-3.189.394a2.191,2.191,0,0,0-1.752,3.028l1.246,2.967-2.562,1.943a2.194,2.194,0,0,0,0,3.5l2.562,1.943-1.246,2.957a2.2,2.2,0,0,0,1.752,3.038l3.189.394.395,3.19a2.191,2.191,0,0,0,3.028,1.752L26.52,44l1.943,2.562a2.194,2.194,0,0,0,3.5,0L33.911,44l2.957,1.246a2.2,2.2,0,0,0,3.038-1.752L40.3,40.3l3.189-.394a2.191,2.191,0,0,0,1.752-3.028L44,33.911l2.562-1.943a2.194,2.194,0,0,0,0-3.5ZM37.1,24.747,27.987,36.9a1.013,1.013,0,0,1-.738.405h-.072a1.013,1.013,0,0,1-.716-.3l-3.038-3.038a1.013,1.013,0,1,1,1.432-1.432l2.213,2.213,8.413-11.218a1.013,1.013,0,1,1,1.62,1.215Z" transform="translate(0.152 0.152)" fill="#243771"/>
    <path id="Path_206" data-name="Path 206" d="M30.944,1.554,31.705,3.1l1.7.247a.994.994,0,0,1,.551,1.7l-1.232,1.2.291,1.7a.993.993,0,0,1-1.446,1.048l-1.519-.8-1.519.8a.993.993,0,0,1-1.446-1.048l.291-1.7-1.232-1.2a.994.994,0,0,1,.551-1.7L28.4,3.1l.762-1.543a.994.994,0,0,1,1.782,0Z" transform="translate(0.315)" fill="#243771"/>
    <path id="Path_207" data-name="Path 207" d="M6.1,26.554,6.861,28.1l1.7.247a.994.994,0,0,1,.551,1.7l-1.228,1.2.292,1.7a.994.994,0,0,1-1.443,1.048l-1.519-.8-1.519.8a.994.994,0,0,1-1.454-1.048l.291-1.7L1.3,30.041a.994.994,0,0,1,.551-1.7l1.7-.247.762-1.543a.994.994,0,0,1,1.781,0Z" transform="translate(0 0.317)" fill="#243771"/>
    <path id="Path_208" data-name="Path 208" d="M55.789,26.554,56.55,28.1l1.7.247a.994.994,0,0,1,.549,1.7l-1.231,1.2.291,1.7a.994.994,0,0,1-1.443,1.048l-1.519-.8-1.519.8a.994.994,0,0,1-1.443-1.048l.292-1.7-1.237-1.2a.994.994,0,0,1,.551-1.7l1.7-.247.762-1.543a.994.994,0,0,1,1.783,0Z" transform="translate(0.629 0.317)" fill="#243771"/>
    <path id="Path_209" data-name="Path 209" d="M10.524,9.266l1.629.553L13.533,8.79a.994.994,0,0,1,1.589.81L15.1,11.322l1.4.993a.993.993,0,0,1-.278,1.761l-1.644.506-.506,1.644a.993.993,0,0,1-1.761.278l-.993-1.4L9.6,15.123a.994.994,0,0,1-.81-1.589l1.026-1.377-.549-1.632a.994.994,0,0,1,1.258-1.258Z" transform="translate(0.096 0.096)" fill="#243771"/>
    <path id="Path_210" data-name="Path 210" d="M9.266,49.58l.549-1.632L8.79,46.568A.994.994,0,0,1,9.6,44.98L11.322,45l.993-1.4a.993.993,0,0,1,1.761.278l.506,1.644,1.644.506a.993.993,0,0,1,.278,1.761l-1.4.993.022,1.722a.994.994,0,0,1-1.589.81l-1.377-1.023-1.629.553A.994.994,0,0,1,9.266,49.58Z" transform="translate(0.096 0.534)" fill="#243771"/>
    <path id="Path_211" data-name="Path 211" d="M29.161,58.547,28.4,57l-1.7-.247a.994.994,0,0,1-.551-1.7l1.232-1.2-.291-1.7a.993.993,0,0,1,1.446-1.048l1.519.8,1.519-.8a.993.993,0,0,1,1.442,1.048l-.291,1.7,1.232,1.2a.994.994,0,0,1-.551,1.7L31.7,57l-.762,1.543a.994.994,0,0,1-1.778,0Z" transform="translate(0.315 0.633)" fill="#243771"/>
    <path id="Path_212" data-name="Path 212" d="M49.58,50.838l-1.632-.549-1.379,1.029a.994.994,0,0,1-1.589-.81L45,48.786l-1.4-.993a.993.993,0,0,1,.278-1.761l1.644-.506.506-1.644a.993.993,0,0,1,1.761-.278l.993,1.4,1.722-.022a.994.994,0,0,1,.81,1.589l-1.023,1.373.553,1.629a.994.994,0,0,1-1.262,1.261Z" transform="translate(0.534 0.534)" fill="#243771"/>
    <path id="Path_213" data-name="Path 213" d="M50.838,10.524l-.549,1.632,1.029,1.379a.994.994,0,0,1-.81,1.589L48.786,15.1l-.993,1.4a.993.993,0,0,1-1.761-.278l-.506-1.644-1.644-.506a.993.993,0,0,1-.278-1.761l1.4-.993L44.986,9.6a.994.994,0,0,1,1.589-.81l1.373,1.023,1.632-.549a.994.994,0,0,1,1.258,1.258Z" transform="translate(0.534 0.096)" fill="#243771"/>
  </g>
</svg>
