<svg xmlns="http://www.w3.org/2000/svg" width="52.574" height="52.574" viewBox="0 0 52.574 52.574">
  <g id="_x33_" transform="translate(-3 -3)">
    <g id="Group_40" data-name="Group 40" transform="translate(3 3)">
      <path id="Path_217" data-name="Path 217" d="M47.907,3H10.689A7.694,7.694,0,0,0,3,10.667V47.885a7.713,7.713,0,0,0,7.689,7.689H47.907a7.694,7.694,0,0,0,7.667-7.689V10.667A7.676,7.676,0,0,0,47.907,3ZM44.643,45.695H25.585v.745a2.191,2.191,0,1,1-4.381,0v-.745H13.975a2.191,2.191,0,0,1,0-4.381H21.2v-.745a2.191,2.191,0,1,1,4.381,0v.745H44.643a2.191,2.191,0,1,1,0,4.381Zm0-14.392H36.691v.745a2.191,2.191,0,0,1-4.381,0V31.3H13.975a2.191,2.191,0,0,1,0-4.381H32.31v-.767a2.191,2.191,0,1,1,4.381,0v.767h7.952a2.191,2.191,0,1,1,0,4.381Zm0-14.085H22.431v.438a2.191,2.191,0,1,1-4.381,0v-.438H13.975a2.191,2.191,0,1,1,0-4.381h4.074V11.762a2.191,2.191,0,1,1,4.381,0v1.073H44.643a2.191,2.191,0,1,1,0,4.381Z" transform="translate(-3 -3)" fill="#243771"/>
    </g>
  </g>
</svg>
