<svg xmlns="http://www.w3.org/2000/svg" width="37.334" height="37.335" viewBox="0 0 37.334 37.335">
  <g id="papers" transform="translate(-0.001 0)">
    <g id="Page-1" transform="translate(0.001 0)">
      <g id="_x30_36---Debt-Papers" transform="translate(0 0)">
        <path id="Shape" d="M204.751,101.656a.667.667,0,0,0-.827-.451l-1.279.377.377,1.279,1.278-.377a.667.667,0,0,0,.452-.828Z" transform="translate(-187.867 -93.799)" fill="#f7d64a"/>
        <path id="Shape_1_" d="M23.056.482a.667.667,0,0,0-.827-.455L.49,6.433a.677.677,0,0,0-.455.834L3.1,17.682a6.661,6.661,0,1,1,10.791,7.79,9.94,9.94,0,0,1,4.643,6.922l12.172-3.586a.678.678,0,0,0,.455-.834ZM18.13,2.625l1.918-.565L21.966,1.5a.667.667,0,1,1,.376,1.278l-1.279.377,1.319,4.476a.667.667,0,0,1-.451.829.687.687,0,0,1-.188.027A.667.667,0,0,1,21.1,8L19.786,3.527,18.506,3.9a.659.659,0,0,1-.188.028.667.667,0,0,1-.188-1.307ZM7.29,11.752a3.312,3.312,0,0,1-1.985,1.6l-1.278.381a.648.648,0,0,1-.189.027.667.667,0,0,1-.639-.478L1.691,8.165a.667.667,0,0,1,.45-.828l1.28-.377a3.333,3.333,0,0,1,3.867,4.792h0Zm5.049-.471-2.558.754a.659.659,0,0,1-.188.028.667.667,0,0,1-.639-.479L7.447,6.467A.667.667,0,0,1,7.9,5.639l2.558-.753a.667.667,0,1,1,.376,1.279l-1.918.565.377,1.279,1.919-.566a.667.667,0,1,1,.376,1.279l-1.918.565.377,1.28L11.964,10a.667.667,0,1,1,.376,1.279v0Zm2.37-.726a.667.667,0,0,1-.639-.478l-.754-2.558-.754-2.558a.667.667,0,0,1,.451-.828l1.919-.565a1.991,1.991,0,0,1,2.361,2.778,1.993,1.993,0,0,1-.477,3.617l-1.918.565a.681.681,0,0,1-.189.027Zm.942,3.2a.667.667,0,0,1-.188-1.306l7.674-2.261a.667.667,0,1,1,.377,1.279L15.84,13.726a.659.659,0,0,1-.188.027Zm.942,3.2a.667.667,0,0,1-.188-1.306l7.674-2.261a.667.667,0,1,1,.377,1.279l-7.674,2.256a.659.659,0,0,1-.188.027Zm.943,3.2a.667.667,0,0,1-.188-1.307l7.674-2.261a.667.667,0,1,1,.376,1.279L17.725,20.12a.659.659,0,0,1-.188.028v.007Zm.942,3.2a.667.667,0,0,1-.188-1.307l7.674-2.261a.667.667,0,1,1,.376,1.279l-7.674,2.251a.654.654,0,0,1-.188.028v.01Zm.942,3.2a.667.667,0,0,1-.188-1.306l7.674-2.261a.667.667,0,1,1,.376,1.279l-7.675,2.248a.655.655,0,0,1-.187.027v.013Zm8.8.909-7.674,2.248a.654.654,0,0,1-.188.028.667.667,0,0,1-.188-1.307l7.674-2.261a.667.667,0,1,1,.376,1.279v.013Z" transform="translate(-0.008 0)" fill="#f7d64a"/>
        <path id="Shape_2_" d="M45.38,112.086a1.99,1.99,0,0,0-1.523-.163l-.639.189,1.133,3.837.639-.188a2,2,0,0,0,.389-3.675Z" transform="translate(-40.068 -103.686)" fill="#f7d64a"/>
        <path id="Shape_3_" d="M194.41,66.58a.667.667,0,0,0-.828-.451l-1.279.377.377,1.279,1.279-.377A.667.667,0,0,0,194.41,66.58Z" transform="translate(-178.281 -61.282)" fill="#f7d64a"/>
        <path id="Shape_4_" d="M12.925,362.862a6.649,6.649,0,0,1-8.517,0A8.626,8.626,0,0,0,0,370.4v2.667a.667.667,0,0,0,.667.667H3.334V369.07a.667.667,0,0,1,1.333,0v4.667h8V369.07a.667.667,0,0,1,1.333,0v4.667h2.667a.667.667,0,0,0,.667-.667V370.4a8.622,8.622,0,0,0-4.409-7.542Z" transform="translate(-0.001 -336.402)" fill="#f7d64a"/>
        <circle id="Oval" cx="5.334" cy="5.334" r="5.334" transform="translate(3.333 16.001)" fill="#f7d64a"/>
        <path id="Shape_5_" d="M357.791,47.462l-11.605-3.421,6.661,22.589,5.4-18.334a.677.677,0,0,0-.46-.835Zm-3.908,8.574a.667.667,0,0,1-.639.479.68.68,0,0,1-.188-.027l-1.02-.3a.667.667,0,1,1,.376-1.279l1.02.3a.667.667,0,0,1,.451.828Zm.94-3.193a.667.667,0,0,1-.639.479.686.686,0,0,1-.188-.027l-3.08-.907a.667.667,0,0,1,.376-1.279l3.081.907A.667.667,0,0,1,354.823,52.843Zm.94-3.2a.667.667,0,0,1-.828.451l-5.146-1.513a.667.667,0,1,1,.376-1.279l5.147,1.513a.667.667,0,0,1,.451.828Z" transform="translate(-320.943 -40.83)" fill="#f7d64a"/>
      </g>
    </g>
  </g>
</svg>
