<svg id="dollar" xmlns="http://www.w3.org/2000/svg" width="58.396" height="58.396" viewBox="0 0 58.396 58.396">
  <g id="Page-1_68_" transform="translate(0 0)">
    <g id="_x30_69---Dollar">
      <path id="Path_211_" d="M182.857,189.566c2.346-.3,4.171-1.58,4.171-3.062s-1.825-2.762-4.171-3.062Z" transform="translate(-162.001 -162.52)" fill="#243771"/>
      <path id="Shape_122_" d="M253.356,237.714A15.642,15.642,0,1,0,269,253.356,15.642,15.642,0,0,0,253.356,237.714Zm10.068,11.227-14.6,12.513a1.043,1.043,0,0,1-1.415-.054l-4.171-4.171a1.043,1.043,0,0,1,1.475-1.474l3.489,3.488,13.869-11.888a1.043,1.043,0,1,1,1.356,1.583Z" transform="translate(-210.601 -210.601)" fill="#243771"/>
      <path id="Path_210_" d="M2.086,19.813a17.727,17.727,0,1,1,34.24,6.438,17.573,17.573,0,0,1,2.458-.759,19.6,19.6,0,0,0,.843-5.679A19.813,19.813,0,1,0,19.813,39.626a19.608,19.608,0,0,0,5.679-.843,17.573,17.573,0,0,1,.759-2.458A17.718,17.718,0,0,1,2.086,19.813Z" transform="translate(0 0)" fill="#243771"/>
      <path id="Path_209_" d="M128,113.361c0,1.482,1.825,2.762,4.171,3.062V110.3C129.825,110.6,128,111.879,128,113.361Z" transform="translate(-113.401 -97.719)" fill="#243771"/>
      <path id="Shape_121_" d="M52.309,36.571a15.642,15.642,0,1,0,8,29.094,17.846,17.846,0,0,1,5.454-5.454,15.648,15.648,0,0,0-13.449-23.64Z" transform="translate(-32.496 -32.4)" fill="#243771"/>
      <path id="rupee_2_" data-name="rupee (2)" d="M19.536,7.845a.641.641,0,0,1-.641.641H16.323c0,.1.008.216.008.32a4.807,4.807,0,0,1-4.807,4.807H10.3l5.824,5.3a.633.633,0,0,1,.04.905.641.641,0,0,1-.473.208.657.657,0,0,1-.433-.168l-7.05-6.409a.641.641,0,0,1,.433-1.114h2.884A3.525,3.525,0,0,0,15.05,8.807c0-.1-.008-.216-.016-.32H8.641a.641.641,0,1,1,0-1.282h6.024a3.533,3.533,0,0,0-3.14-1.923H8.641A.641.641,0,1,1,8.641,4H18.895a.641.641,0,1,1,0,1.282h-4.11A4.822,4.822,0,0,1,16.059,7.2h2.836a.641.641,0,0,1,.641.641Z" transform="translate(6.045 7.802)" fill="#eaecf1" stroke="#eaecf1" stroke-width="1"/>
    </g>
  </g>
</svg>
