<svg xmlns="http://www.w3.org/2000/svg" width="54.471" height="58.729" viewBox="0 0 54.471 58.729">
  <g id="Layer_x0020_1" transform="translate(-10.202 -2.625)">
    <g id="_281684760" transform="translate(10.202 2.625)">
      <path id="Path_218" data-name="Path 218" d="M107,156.175V146.8a.667.667,0,0,1,.695-.695h7.061a.747.747,0,0,1,.695.695v9.376Zm34.494,0V125.5h-3.241a.637.637,0,0,1-.579-.347.728.728,0,0,1,0-.695l7.292-11.112a.656.656,0,0,1,1.157,0l7.64,11c.116.116.116.231.116.463a.747.747,0,0,1-.695.695h-3.241v30.674Zm-11.459,0V135.456a.667.667,0,0,1,.695-.695h7.061a.747.747,0,0,1,.695.695v20.719Zm-11.575,0v-13.89a.667.667,0,0,1,.695-.695h7.061a.614.614,0,0,1,.695.695v13.89Z" transform="translate(-99.408 -100.224)" fill="#243771" fill-rule="evenodd"/>
      <path id="Path_219" data-name="Path 219" d="M120.194,499.389h-48.5a.747.747,0,0,1-.695-.695.667.667,0,0,1,.695-.694h48.5a.667.667,0,0,1,.695.694A.747.747,0,0,1,120.194,499.389Z" transform="translate(-67.575 -440.66)" fill="#243771" fill-rule="evenodd"/>
      <path id="Path_220" data-name="Path 220" d="M48.786,45.612a2.785,2.785,0,0,1-2.894-2.431,2.984,2.984,0,0,1,2.431-3.241c1.273-.463,2.547-1.042,3.588-1.5a2.327,2.327,0,0,0,.926-.463,37.641,37.641,0,0,0,7.524-4.4A44.557,44.557,0,0,0,75.872,14.012a30.722,30.722,0,0,0,1.389-4.283l.116-.347-3.82-1.621a.952.952,0,0,1-.463-.695c0-.232.231-.579.463-.579l9.26-3.82a.6.6,0,0,1,.81.347l3.82,9.26a.711.711,0,0,1-.116.695.767.767,0,0,1-.81.232l-3.7-1.621A52.385,52.385,0,0,1,75.64,26.513,54.953,54.953,0,0,1,63.718,38.32a48.91,48.91,0,0,1-9.492,5.44A34.688,34.688,0,0,1,50.059,45.5,4.748,4.748,0,0,1,48.786,45.612Z" transform="translate(-45.361 -2.625)" fill="#243771" fill-rule="evenodd"/>
      <g id="_90-percent" data-name="90-percent" transform="translate(0 0.174)">
        <path id="Path_222" data-name="Path 222" d="M21.326,10.735a2.482,2.482,0,0,0-.642-1.668,2.118,2.118,0,0,1-.509-1.9,2.487,2.487,0,0,0-1.668-2.889,2.119,2.119,0,0,1-1.391-1.39A2.487,2.487,0,0,0,14.228,1.22a2.118,2.118,0,0,1-1.9-.509,2.506,2.506,0,0,0-3.336,0,2.118,2.118,0,0,1-1.9.509A2.487,2.487,0,0,0,4.2,2.888a2.118,2.118,0,0,1-1.39,1.39A2.488,2.488,0,0,0,1.145,7.168a2.118,2.118,0,0,1-.509,1.9,2.506,2.506,0,0,0,0,3.336,2.118,2.118,0,0,1,.509,1.9,2.487,2.487,0,0,0,1.668,2.889A2.119,2.119,0,0,1,4.2,18.582,2.487,2.487,0,0,0,7.093,20.25a2.118,2.118,0,0,1,1.9.509,2.505,2.505,0,0,0,3.336,0,2.119,2.119,0,0,1,1.9-.509,2.487,2.487,0,0,0,2.889-1.668,2.119,2.119,0,0,1,1.39-1.391A2.487,2.487,0,0,0,20.175,14.3a2.118,2.118,0,0,1,.509-1.9,2.48,2.48,0,0,0,.642-1.668ZM7.6,12.794a1.964,1.964,0,0,1-3.928,0,.625.625,0,0,1,1.25,0,.714.714,0,0,0,1.428,0V11.226A1.972,1.972,0,0,1,3.676,9.4v-.72a1.964,1.964,0,0,1,3.928,0Zm5.02,0a1.964,1.964,0,0,1-3.928,0V8.677a1.964,1.964,0,0,1,3.928,0Zm1.093-5.405a.625.625,0,0,1,1.25,0v.669a.625.625,0,0,1-1.25,0Zm3.927,6.694a.625.625,0,0,1-1.25,0v-.669a.625.625,0,0,1,1.25,0ZM17.6,7.62l-2.678,6.694a.625.625,0,0,1-1.16-.464l2.678-6.694a.625.625,0,1,1,1.16.464Z" transform="translate(-0.001 -0.076)" fill="#243771"/>
        <path id="Path_223" data-name="Path 223" d="M239.433,189.388a.715.715,0,0,0-.714.714v4.117a.714.714,0,0,0,1.428,0V190.1A.715.715,0,0,0,239.433,189.388Z" transform="translate(-228.773 -181.501)" fill="#243771"/>
        <path id="Path_224" data-name="Path 224" d="M118.932,189.388a.713.713,0,0,0-.714.714v.72a.714.714,0,0,0,1.428,0v-.72A.715.715,0,0,0,118.932,189.388Z" transform="translate(-113.293 -181.501)" fill="#243771"/>
      </g>
    </g>
  </g>
</svg>
