<svg xmlns="http://www.w3.org/2000/svg" width="326.433" height="298.85" viewBox="0 0 326.433 298.85">
  <g id="Group_10090" data-name="Group 10090" transform="translate(-31.344 -1067.096)">
    <g id="Group_10087" data-name="Group 10087" transform="matrix(0.891, -0.454, 0.454, 0.891, 31.344, 1177.752)" opacity="0.13">
      <path id="Path_76" data-name="Path 76" d="M236.357,85.1c-52.026-23.647-76.909-.419-76.909-.419l.021.042c-68.887,51.063-28.191,194.891-28.191,194.891l35.166-.922c-40.968-110.944-.712-157.4,11.143-168.082,11.373-7.959,26.495-3.728,26.495-3.728,49.346,17.489,61.284,45.848,61.284,45.848l37.219-1.445c0,.021-14.2-42.539-66.227-66.186" transform="translate(-119.341 -74.48)" fill="#d1af2b"/>
    </g>
    <g id="Group_10088" data-name="Group 10088" transform="matrix(0.891, -0.454, 0.454, 0.891, 152.781, 1155.483)" opacity="0.13">
      <path id="Path_86" data-name="Path 86" d="M211.729,91.415s-17.887,12.755-21.405,25.3c0,0-12.755-10.808-14.494-11.1,0,0,23.081-15.583,35.9-14.2" transform="translate(-175.83 -91.329)" fill="#75a54c"/>
    </g>
    <g id="Group_10089" data-name="Group 10089" transform="matrix(0.891, -0.454, 0.454, 0.891, 77.048, 1155.499)" opacity="0.13">
      <path id="Path_87" data-name="Path 87" d="M298.185,85.162l.021-.042s-24.882-23.228-76.909.419c-49.827,22.641-64.949,62.667-66.143,65.976C149.185,164.857,112.28,257.538,212.4,310.4a6.126,6.126,0,0,0,5.592.063c9.635-4.859,40.968-23.039,54.2-59.085l-32.841-.775s-10.012,15.436-19.667,24a6.062,6.062,0,0,1-7.6.419c-13.53-9.844-56.257-48.4-19.772-121.836,0,0,15.122-33.533,61.284-45.848,0,0,14.452-4.524,25.385,2.765,10.1,8.525,54.624,54.289,12.253,169.045l35.166.922s40.7-143.849-28.212-194.912" transform="translate(-143.607 -74.92)" fill="#f7d64a"/>
    </g>
  </g>
</svg>
