<svg xmlns="http://www.w3.org/2000/svg" width="66.148" height="58.396" viewBox="0 0 66.148 58.396">
  <g id="protection" transform="translate(-4 -7.281)">
    <path id="Path_240" data-name="Path 240" d="M63.472,10.595,50.343,7.312a1.311,1.311,0,0,0-.567,0L36.647,10.595a1.2,1.2,0,0,0-.9,1.157v8.04A20.37,20.37,0,0,0,48.864,38.823c.512.172,1.031.488,1.574.3A20.454,20.454,0,0,0,63.425,25.908c1.411-3.683.832-10.259.945-14.156a1.2,1.2,0,0,0-.9-1.157ZM56.01,20.654,49.2,27.478a1.2,1.2,0,0,1-1.677,0l-3.4-3.412A1.177,1.177,0,0,1,45.785,22.4l2.574,2.574,5.974-5.986a1.181,1.181,0,1,1,1.677,1.665Z" transform="translate(5.754 0)" fill="#243771"/>
    <path id="Exclusion_1" data-name="Exclusion 1" d="M839-1267.947a24.5,24.5,0,0,1-10.043-2.18,27.2,27.2,0,0,1-8.373-5.855,27.04,27.04,0,0,1-5.633-8.43,24.331,24.331,0,0,1-1.95-10.034,25.423,25.423,0,0,1,7.47-18.345,27.109,27.109,0,0,1,19.159-8.2,24.791,24.791,0,0,1,8.507,1.5v5.655a22.853,22.853,0,0,0,15.49,21.548,3.52,3.52,0,0,0,1.18.2,3.516,3.516,0,0,0,1.075-.168,26.443,26.443,0,0,1-8.46,17.29,26.446,26.446,0,0,1-17.928,7.009C839.335-1267.949,839.169-1267.947,839-1267.947Zm-7.256-26.018a.957.957,0,0,0-.543.168.958.958,0,0,0-.353.446.959.959,0,0,0-.041.567.955.955,0,0,0,.287.49l10.581,9.619a.981.981,0,0,0,.649.252.952.952,0,0,0,.388-.081.954.954,0,0,0,.321-.231.936.936,0,0,0,.2-.32.947.947,0,0,0,.059-.372.963.963,0,0,0-.091-.366.946.946,0,0,0-.226-.3l-8.741-7.947h1.84a7.167,7.167,0,0,0,5.1-2.113,7.167,7.167,0,0,0,2.113-5.1c0-.079,0-.165-.006-.241s-.006-.162-.006-.24h3.86a.973.973,0,0,0,.68-.282.972.972,0,0,0,.282-.68.969.969,0,0,0-.282-.68.972.972,0,0,0-.68-.282h-4.257a7.258,7.258,0,0,0-1.912-2.885h6.169a.972.972,0,0,0,.68-.282.972.972,0,0,0,.282-.68.959.959,0,0,0-.282-.68.972.972,0,0,0-.68-.282H831.749a.967.967,0,0,0-.68.282.956.956,0,0,0-.282.68.956.956,0,0,0,.282.68.968.968,0,0,0,.68.282h4.329a5.3,5.3,0,0,1,2.762.78,5.3,5.3,0,0,1,1.951,2.105h-9.042a.967.967,0,0,0-.68.282.952.952,0,0,0-.282.68.956.956,0,0,0,.282.68.968.968,0,0,0,.68.282h9.595c.013.166.024.326.024.481a5.252,5.252,0,0,1-1.55,3.74,5.252,5.252,0,0,1-3.74,1.55Z" transform="translate(-809 1333.625)" fill="#243771"/>
  </g>
</svg>
