<svg id="transparency" xmlns="http://www.w3.org/2000/svg" width="58.396" height="58.396" viewBox="0 0 58.396 58.396">
  <path id="Path_236" data-name="Path 236" d="M107.711,7.071h12.546a1.711,1.711,0,0,0,1.711-1.711V2.281A2.281,2.281,0,0,0,119.687,0H108.281A2.281,2.281,0,0,0,106,2.281V5.361A1.711,1.711,0,0,0,107.711,7.071Z" transform="translate(-93.91)" fill="#243771"/>
  <path id="Path_237" data-name="Path 237" d="M420.252,415.415l-4.839-4.839a3.422,3.422,0,0,0-4.839,4.839l4.839,4.839a3.422,3.422,0,0,0,4.839-4.839Z" transform="translate(-362.858 -362.86)" fill="#243771"/>
  <path id="Path_238" data-name="Path 238" d="M228.034,216.628a11.405,11.405,0,1,0-4.641,9.183l2.664,2.664a6.887,6.887,0,0,1,2.419-2.42l-2.663-2.663A11.354,11.354,0,0,0,228.034,216.628Zm-11.809,4.436a1.711,1.711,0,0,1-2.419,0l-3.226-3.226A1.711,1.711,0,1,1,213,215.419l2.016,2.016,5.242-5.242a1.711,1.711,0,0,1,2.419,2.419Z" transform="translate(-181.816 -181.816)" fill="#243771"/>
  <path id="Path_239" data-name="Path 239" d="M33.279,77.911A1.7,1.7,0,0,1,31.593,79.9H8.554a1.711,1.711,0,0,1,0-3.422H28.3a14.912,14.912,0,0,1-4.52-3.422H8.554a1.711,1.711,0,1,1,0-3.422H21.476A14.711,14.711,0,0,1,20.3,66.217H8.554a1.711,1.711,0,1,1,0-3.422H19.99a14.781,14.781,0,0,1,.487-3.422H8.554a1.711,1.711,0,1,1,0-3.422H21.861A14.92,14.92,0,0,1,24.49,52.53H8.554a1.711,1.711,0,0,1,0-3.422H30.085a14.833,14.833,0,0,1,10.063.221v-12.2A5.138,5.138,0,0,0,35.015,32H31.479v1.711a5.138,5.138,0,0,1-5.132,5.132H13.8a5.138,5.138,0,0,1-5.132-5.132V32H5.133A5.138,5.138,0,0,0,0,37.132V81.614a5.138,5.138,0,0,0,5.132,5.132H35.015a5.138,5.138,0,0,0,5.132-5.132V77a14.751,14.751,0,0,1-5.335.993,14.905,14.905,0,0,1-1.533-.079ZM8.554,42.265H31.593a1.711,1.711,0,0,1,0,3.422H8.554a1.711,1.711,0,0,1,0-3.422Z" transform="translate(0 -28.35)" fill="#243771"/>
</svg>
