<svg xmlns="http://www.w3.org/2000/svg" width="58.396" height="58.396" viewBox="0 0 58.396 58.396">
  <g id="worldwide-shipping" transform="translate(0 0)">
    <path id="Path_225" data-name="Path 225" d="M101.973,107.223C102.322,98.639,105.282,90,110.492,90A18.938,18.938,0,0,0,91.76,107.223Z" transform="translate(-81.294 -79.736)" fill="#243771"/>
    <path id="Path_226" data-name="Path 226" d="M216.665,120c-1.96,0-4.717,5.414-5.064,13.8h10.128C221.382,125.415,218.625,120,216.665,120Z" transform="translate(-187.467 -106.314)" fill="#243771"/>
    <path id="Path_227" data-name="Path 227" d="M264.52,107.223h10.213A18.938,18.938,0,0,0,256,90C261.211,90,264.171,98.639,264.52,107.223Z" transform="translate(-226.803 -79.736)" fill="#243771"/>
    <path id="Path_228" data-name="Path 228" d="M101.973,271H91.76a18.938,18.938,0,0,0,18.732,17.222C105.282,288.223,102.322,279.585,101.973,271Z" transform="translate(-81.294 -240.092)" fill="#243771"/>
    <path id="Path_229" data-name="Path 229" d="M274.733,271H264.52c-.349,8.584-3.309,17.222-8.519,17.222A18.938,18.938,0,0,0,274.733,271Z" transform="translate(-226.803 -240.092)" fill="#243771"/>
    <path id="Path_230" data-name="Path 230" d="M216.664,284.8c1.96,0,4.717-5.414,5.064-13.8H211.6C211.947,279.387,214.7,284.8,216.664,284.8Z" transform="translate(-187.466 -240.092)" fill="#243771"/>
    <path id="Path_231" data-name="Path 231" d="M272.924.01a1.711,1.711,0,1,0-.424,3.395,25.85,25.85,0,0,1,6.745,2.02,1.712,1.712,0,1,0,1.33-3.154A29.354,29.354,0,0,0,272.924.01Z" transform="translate(-240.092 0)" fill="#243771"/>
    <path id="Path_232" data-name="Path 232" d="M394.055,57.121a1.711,1.711,0,0,0,.329-2.4,29.193,29.193,0,0,0-5.6-5.6,1.711,1.711,0,1,0-2.068,2.727,25.689,25.689,0,0,1,4.937,4.937A1.712,1.712,0,0,0,394.055,57.121Z" transform="translate(-342.013 -43.217)" fill="#243771"/>
    <path id="Path_233" data-name="Path 233" d="M463.306,147.041a1.713,1.713,0,0,0-.912,2.242,26.9,26.9,0,0,1,2.131,6.859,1.711,1.711,0,0,0,3.395-.424,30.406,30.406,0,0,0-2.371-7.764A1.718,1.718,0,0,0,463.306,147.041Z" transform="translate(-409.537 -130.153)" fill="#243771"/>
    <path id="Path_234" data-name="Path 234" d="M148.936,2.271a1.712,1.712,0,0,0,1.33,3.154,25.848,25.848,0,0,1,6.745-2.02A1.711,1.711,0,0,0,156.587.01,29.353,29.353,0,0,0,148.936,2.271Z" transform="translate(-131.022 0)" fill="#243771"/>
    <path id="Path_235" data-name="Path 235" d="M29.2,107.124A29.536,29.536,0,0,0,58.383,81.56a1.711,1.711,0,1,0-3.395-.424A25.89,25.89,0,0,1,3.422,77.926a26.146,26.146,0,0,1,6.5-16.942v.566a1.711,1.711,0,1,0,3.422,0V56.712A1.71,1.71,0,0,0,11.634,55H6.794a1.71,1.71,0,1,0,0,3.421h.824a29.081,29.081,0,0,0,21.581,48.7Z" transform="translate(0 -48.728)" fill="#243771"/>
  </g>
</svg>
