<svg xmlns="http://www.w3.org/2000/svg" width="28.587" height="38.486" viewBox="0 0 28.587 38.486">
  <g id="money_3_" data-name="money (3)" transform="translate(0 38.486) rotate(-90)">
    <ellipse id="Ellipse_18" data-name="Ellipse 18" cx="0.601" cy="0.601" rx="0.601" ry="0.601" transform="translate(6.615 17.763)" fill="#243771"/>
    <path id="Exclusion_1" data-name="Exclusion 1" d="M-3306.943-551.306a6.623,6.623,0,0,1-6.615-6.615,6.623,6.623,0,0,1,6.615-6.615,6.623,6.623,0,0,1,6.615,6.615A6.623,6.623,0,0,1-3306.943-551.306Zm1.918-5.657v.931a.154.154,0,0,0,.153.154h.51a.154.154,0,0,0,.154-.154v-3.779a.154.154,0,0,0-.154-.153h-.572a.153.153,0,0,0-.153.153v1.089a.918.918,0,0,1-.347.779v-1.867a.154.154,0,0,0-.154-.153h-.51a.153.153,0,0,0-.153.153v2.027a.878.878,0,0,1-.749-.954v-1.073a.153.153,0,0,0-.153-.153h-.677a.15.15,0,0,0-.112.049l-1.946,2.107a.155.155,0,0,0-.041.1v1.054a.152.152,0,0,0,.154.153.15.15,0,0,0,.111-.05l1.779-1.926a1.739,1.739,0,0,0,1.633,1.766v.674a.154.154,0,0,0,.153.154h.51a.154.154,0,0,0,.154-.154v-.749a1.819,1.819,0,0,0,.407-.181Z" transform="translate(3326.186 576.285)" fill="#243771"/>
    <path id="Path_830" data-name="Path 830" d="M36.682,0H1.8A1.806,1.806,0,0,0,0,1.8V18.642a1.806,1.806,0,0,0,1.8,1.8H36.682a1.806,1.806,0,0,0,1.8-1.8V1.8A1.806,1.806,0,0,0,36.682,0ZM12.628,18.04H4.811a.6.6,0,0,1-.6-.6A1.2,1.2,0,0,0,3,16.236a.6.6,0,0,1-.6-.6V4.811a.6.6,0,0,1,.6-.6A1.2,1.2,0,0,0,4.209,3a.6.6,0,0,1,.6-.6h7.8a.615.615,0,0,1,.621.561.6.6,0,0,1-.6.641H5.5a.225.225,0,0,0-.213.155A2.417,2.417,0,0,1,3.763,5.29a.225.225,0,0,0-.155.213v9.438a.225.225,0,0,0,.155.213A2.417,2.417,0,0,1,5.29,16.683a.225.225,0,0,0,.213.155h7.1a.615.615,0,0,1,.621.561.6.6,0,0,1-.6.641ZM9.02,10.223a1.8,1.8,0,1,1-1.8-1.8A1.806,1.806,0,0,1,9.02,10.223ZM19.243,18.04a7.817,7.817,0,1,1,7.817-7.817A7.826,7.826,0,0,1,19.243,18.04ZM36.08,15.635a.6.6,0,0,1-.6.6,1.2,1.2,0,0,0-1.207,1.207.6.6,0,0,1-.6.6h-7.8a.615.615,0,0,1-.621-.561.6.6,0,0,1,.6-.641h7.124a.225.225,0,0,0,.213-.155,2.417,2.417,0,0,1,1.528-1.528.225.225,0,0,0,.155-.213V5.5a.225.225,0,0,0-.155-.213A2.417,2.417,0,0,1,33.2,3.763a.225.225,0,0,0-.213-.155h-7.1a.615.615,0,0,1-.621-.561.6.6,0,0,1,.6-.641h7.817a.6.6,0,0,1,.6.6,1.2,1.2,0,0,0,1.207,1.207.6.6,0,0,1,.6.6V15.635Zm-6.615-5.412a1.8,1.8,0,1,1,1.8,1.8A1.806,1.806,0,0,1,29.466,10.223Z" transform="translate(0 8.142)" fill="#243771"/>
    <ellipse id="Ellipse_19" data-name="Ellipse 19" cx="0.601" cy="0.601" rx="0.601" ry="0.601" transform="translate(30.668 17.763)" fill="#243771"/>
    <path id="Path_831" data-name="Path 831" d="M25.076,1.58A1.8,1.8,0,0,0,23.036.017L.065,3.3a.075.075,0,0,0,.011.15H25.14a.15.15,0,0,0,.149-.169Z" transform="translate(11.151 3.487)" fill="#243771"/>
    <path id="Path_832" data-name="Path 832" d="M21.291,2.479a.15.15,0,0,0,.124-.185l-.232-.928a1.8,1.8,0,0,0-2.225-1.3l-18.9,5.3a.075.075,0,0,0,.03.147Z" transform="translate(11.568)" fill="#243771"/>
  </g>
</svg>
